#!OML:ASF H:\LiuWeirdWalks\Patient Classification 1\Patient 1\Session 1\male.ASF
:FULLY-SPECIFIED
:DEGREES
324
root 0.269974 17.8848 -26.5332 3.02026 10.7293 1.45298
lowerback 4.22309 -1.24861 -1.63989
upperback 0.303055 -1.68316 2.67743
thorax -1.92788 -0.816642 3.77687
lowerneck -12.814 -2.01738 2.96425
upperneck 17.7275 -2.12219 -6.4909
head 7.44591 -1.42311 -2.83493
rclavicle 7.45443e-015 2.06736e-014
rhumerus -30.5267 -25.0879 -15.6804
rradius 37.8976
rwrist -10.5511
rhand -21.1095 -3.7504
rfingers 7.12502
rthumb 5.26862 -33.6649
lclavicle 7.45443e-015 2.06736e-014
lhumerus -21.5309 18.9734 30.8607
lradius 35.7498
lwrist 9.34958
lhand -16.2918 5.43607
lfingers 7.12502
lthumb 9.91864 35.1824
rfemur -3.77859 -4.39319 12.6092
rtibia 26.5326
rfoot -13.6361 -31.7581
rtoes -1.22215
lfemur -7.81034 -3.48249 -15.8404
ltibia 25.2793
lfoot -10.3187 14.5212
ltoes -9.14735
325
root 0.280278 17.8818 -26.5205 3.00841 10.7755 1.39182
lowerback 4.26318 -1.24104 -1.59694
upperback 0.322874 -1.67063 2.70908
thorax -1.9312 -0.810772 3.78556
lowerneck -12.8429 -2.0291 2.97044
upperneck 17.7359 -2.13921 -6.49346
head 7.4528 -1.43144 -2.83919
rclavicle 3.57812e-014 -1.51076e-014
rhumerus -30.3937 -25.0697 -15.5634
rradius 37.9456
rwrist -10.5787
rhand -21.326 -3.71747
rfingers 7.12502
rthumb 5.05954 -33.6371
lclavicle 3.57812e-014 -1.51076e-014
lhumerus -21.54 18.9932 30.7683
lradius 35.6962
lwrist 9.33437
lhand -16.3355 5.49796
lfingers 7.12502
lthumb 9.87645 35.2463
rfemur -3.71897 -4.38324 12.6565
rtibia 26.5223
rfoot -13.5638 -31.8298
rtoes -1.33783
lfemur -7.88199 -3.51614 -15.8105
ltibia 25.5011
lfoot -10.4079 14.5692
ltoes -9.2008
326
root 0.291752 17.8789 -26.5073 3.00213 10.8161 1.35333
lowerback 4.29529 -1.23202 -1.57351
upperback 0.352112 -1.65734 2.73331
thorax -1.92007 -0.804732 3.79711
lowerneck -12.8827 -2.04911 2.94069
upperneck 17.7369 -2.16863 -6.45422
head 7.45963 -1.44428 -2.82492
rclavicle -6.16232e-015 1.19271e-014
rhumerus -30.2638 -25.0754 -15.449
rradius 37.9849
rwrist -10.5785
rhand -21.5472 -3.65876
rfingers 7.12502
rthumb 4.84596 -33.5833
lclavicle -6.16232e-015 1.19271e-014
lhumerus -21.5323 19.0525 30.6756
lradius 35.6233
lwrist 9.28775
lhand -16.4067 5.529
lfingers 7.12502
lthumb 9.8078 35.2806
rfemur -3.66157 -4.37583 12.6745
rtibia 26.5198
rfoot -13.4894 -31.894
rtoes -1.45612
lfemur -7.94106 -3.53796 -15.8092
ltibia 25.701
lfoot -10.4922 14.6124
ltoes -9.26339
327
root 0.304366 17.876 -26.4935 2.99623 10.85 1.33413
lowerback 4.33205 -1.21918 -1.56431
upperback 0.377652 -1.6398 2.74895
thorax -1.91552 -0.796338 3.80775
lowerneck -12.9339 -2.09874 2.95794
upperneck 17.7793 -2.23442 -6.482
head 7.47848 -1.47798 -2.84531
rclavicle 2.66371e-014 1.59028e-014
rhumerus -30.1522 -25.099 -15.3294
rradius 38.0143
rwrist -10.5464
rhand -21.7302 -3.57223
rfingers 7.12502
rthumb 4.6693 -33.5008
lclavicle 2.66371e-014 1.59028e-014
lhumerus -21.5185 19.1215 30.5775
lradius 35.5368
lwrist 9.20625
lhand -16.4832 5.51418
lfingers 7.12502
lthumb 9.73398 35.2692
rfemur -3.60213 -4.37118 12.6666
rtibia 26.5275
rfoot -13.4227 -31.9489
rtoes -1.57024
lfemur -7.9795 -3.54731 -15.8331
ltibia 25.8752
lfoot -10.5714 14.6498
ltoes -9.32631
328
root 0.318165 17.8729 -26.4787 2.9862 10.8724 1.33762
lowerback 4.37496 -1.20091 -1.57533
upperback 0.401553 -1.61612 2.75928
thorax -1.91618 -0.784637 3.8242
lowerneck -12.9573 -2.1628 2.9556
upperneck 17.8183 -2.31785 -6.49822
head 7.4907 -1.51994 -2.85971
rclavicle 1.96797e-014 -1.35174e-014
rhumerus -30.0602 -25.1176 -15.1961
rradius 38.0428
rwrist -10.5273
rhand -21.9071 -3.5074
rfingers 7.12502
rthumb 4.4985 -33.4396
lclavicle 1.96797e-014 -1.35174e-014
lhumerus -21.5029 19.2063 30.4811
lradius 35.4393
lwrist 9.06798
lhand -16.5607 5.47541
lfingers 7.12502
lthumb 9.65923 35.2339
rfemur -3.53496 -4.37828 12.626
rtibia 26.5449
rfoot -13.3855 -31.9842
rtoes -1.65309
lfemur -7.98917 -3.53558 -15.8861
ltibia 26.0245
lfoot -10.6478 14.6782
ltoes -9.40554
329
root 0.333381 17.8698 -26.4629 2.97616 10.8878 1.35882
lowerback 4.39567 -1.1811 -1.59778
upperback 0.440275 -1.5912 2.76417
thorax -1.88909 -0.772883 3.84044
lowerneck -12.9875 -2.23048 3.00205
upperneck 17.8581 -2.40604 -6.5696
head 7.50253 -1.5662 -2.90107
rclavicle 3.29983e-014 1.11319e-014
rhumerus -29.9702 -25.1768 -15.0631
rradius 38.0643
rwrist -10.4938
rhand -22.0329 -3.45364
rfingers 7.12502
rthumb 4.37696 -33.3884
lclavicle 3.29983e-014 1.11319e-014
lhumerus -21.4774 19.3332 30.3796
lradius 35.3343
lwrist 8.88389
lhand -16.6324 5.41624
lfingers 7.12502
lthumb 9.59003 35.178
rfemur -3.46216 -4.40259 12.5573
rtibia 26.568
rfoot -13.3939 -31.9955
rtoes -1.68657
lfemur -7.97833 -3.50872 -15.9626
ltibia 26.1537
lfoot -10.7211 14.6999
ltoes -9.50277
330
root 0.349667 17.8667 -26.4463 2.95902 10.8919 1.37212
lowerback 4.42531 -1.15782 -1.60966
upperback 0.475653 -1.5611 2.77087
thorax -1.87111 -0.758426 3.85262
lowerneck -13.0462 -2.27453 3.06754
upperneck 17.9219 -2.46542 -6.6405
head 7.52847 -1.59783 -2.94393
rclavicle 3.27995e-015 -5.1684e-014
rhumerus -29.8917 -25.2664 -14.9184
rradius 38.07
rwrist -10.4114
rhand -22.0682 -3.39293
rfingers 7.12502
rthumb 4.34288 -33.3284
lclavicle 3.27995e-015 -5.1684e-014
lhumerus -21.4543 19.4849 30.2689
lradius 35.2228
lwrist 8.67413
lhand -16.6522 5.31252
lfingers 7.12502
lthumb 9.5709 35.0751
rfemur -3.38282 -4.42267 12.4923
rtibia 26.5948
rfoot -13.4445 -31.999
rtoes -1.67315
lfemur -7.94631 -3.46403 -16.0329
ltibia 26.267
lfoot -10.7999 14.7108
ltoes -9.61177
331
root 0.36678 17.8637 -26.4291 2.94167 10.8941 1.37141
lowerback 4.4259 -1.13457 -1.61091
upperback 0.522008 -1.53039 2.78654
thorax -1.82566 -0.744296 3.86705
lowerneck -13.0696 -2.28988 3.0687
upperneck 17.9313 -2.49183 -6.61468
head 7.53466 -1.60818 -2.93887
rclavicle -9.93923e-015 -8.74653e-015
rhumerus -29.8173 -25.3773 -14.7648
rradius 38.0717
rwrist -10.3383
rhand -22.0517 -3.34787
rfingers 7.12502
rthumb 4.35886 -33.283
lclavicle -9.93923e-015 -8.74653e-015
lhumerus -21.4368 19.6501 30.159
lradius 35.131
lwrist 8.46807
lhand -16.6577 5.24623
lfingers 7.12502
lthumb 9.56564 35.0091
rfemur -3.30377 -4.43925 12.4406
rtibia 26.6232
rfoot -13.5402 -32.0006
rtoes -1.61572
lfemur -7.90843 -3.4069 -16.0876
ltibia 26.3701
lfoot -10.8847 14.7072
ltoes -9.71649
332
root 0.384944 17.8608 -26.4118 2.93373 10.902 1.37389
lowerback 4.42009 -1.1143 -1.61534
upperback 0.56078 -1.50361 2.80752
thorax -1.78392 -0.731951 3.889
lowerneck -13.0889 -2.30016 3.07
upperneck 17.9424 -2.51043 -6.59258
head 7.54102 -1.61509 -2.93427
rclavicle -3.37934e-015 -7.95139e-015
rhumerus -29.7475 -25.4662 -14.6103
rradius 38.0802
rwrist -10.3104
rhand -22.0052 -3.3262
rfingers 7.12502
rthumb 4.40374 -33.2604
lclavicle -3.37934e-015 -7.95139e-015
lhumerus -21.438 19.8116 30.0438
lradius 35.0491
lwrist 8.27675
lhand -16.6445 5.17327
lfingers 7.12502
lthumb 9.57838 34.9355
rfemur -3.23288 -4.46266 12.3814
rtibia 26.6559
rfoot -13.6615 -31.9985
rtoes -1.53891
lfemur -7.8743 -3.35342 -16.147
ltibia 26.4654
lfoot -10.9784 14.6949
ltoes -9.81047
333
root 0.403675 17.8581 -26.3944 2.93552 10.9103 1.37144
lowerback 4.4084 -1.09689 -1.61588
upperback 0.592214 -1.48023 2.83449
thorax -1.74613 -0.721169 3.91518
lowerneck -13.1055 -2.30539 3.07136
upperneck 17.9534 -2.52133 -6.57419
head 7.54727 -1.61865 -2.9301
rclavicle -9.74045e-015 3.57812e-014
rhumerus -29.6753 -25.5277 -14.469
rradius 38.099
rwrist -10.3352
rhand -21.985 -3.35935
rfingers 7.12502
rthumb 4.42321 -33.2932
lclavicle -9.74045e-015 3.57812e-014
lhumerus -21.4635 19.956 29.9194
lradius 34.9877
lwrist 8.10782
lhand -16.622 5.11856
lfingers 7.12502
lthumb 9.60008 34.8798
rfemur -3.17828 -4.47714 12.3282
rtibia 26.6961
rfoot -13.769 -32.0057
rtoes -1.48142
lfemur -7.84925 -3.2958 -16.1999
ltibia 26.556
lfoot -11.0808 14.6723
ltoes -9.87598
334
root 0.423498 17.8554 -26.3772 2.95182 10.9275 1.3877
lowerback 4.40218 -1.0809 -1.62329
upperback 0.609401 -1.45902 2.85578
thorax -1.72591 -0.710994 3.93986
lowerneck -13.1339 -2.31393 3.07612
upperneck 17.9799 -2.53618 -6.56086
head 7.56035 -1.62453 -2.92921
rclavicle 2.39536e-014 1.11319e-014
rhumerus -29.6203 -25.5568 -14.3291
rradius 38.1263
rwrist -10.4025
rhand -21.9633 -3.4114
rfingers 7.12502
rthumb 4.44423 -33.3448
lclavicle 2.39536e-014 1.11319e-014
lhumerus -21.4925 20.0766 29.7922
lradius 34.9364
lwrist 7.98819
lhand -16.5923 5.07428
lfingers 7.12502
lthumb 9.62869 34.8342
rfemur -3.13934 -4.50589 12.25
rtibia 26.7484
rfoot -13.8576 -32.0077
rtoes -1.45183
lfemur -7.83354 -3.25427 -16.2761
ltibia 26.6412
lfoot -11.1884 14.6525
ltoes -9.90827
335
root 0.444066 17.8525 -26.3604 2.97428 10.9505 1.39774
lowerback 4.40027 -1.0678 -1.61687
upperback 0.622747 -1.44093 2.87899
thorax -1.71211 -0.702303 3.95908
lowerneck -13.1794 -2.32667 3.08664
upperneck 18.0084 -2.55639 -6.55742
head 7.5766 -1.63376 -2.9335
rclavicle 1.03368e-014 -3.18055e-014
rhumerus -29.5645 -25.6025 -14.1933
rradius 38.1483
rwrist -10.4668
rhand -21.9244 -3.45805
rfingers 7.12502
rthumb 4.48175 -33.3906
lclavicle 1.03368e-014 -3.18055e-014
lhumerus -21.5327 20.1657 29.656
lradius 34.9091
lwrist 7.91343
lhand -16.5261 5.03491
lfingers 7.12502
lthumb 9.69262 34.7919
rfemur -3.11641 -4.52562 12.1802
rtibia 26.8137
rfoot -13.9082 -32.0263
rtoes -1.46625
lfemur -7.82577 -3.2242 -16.3463
ltibia 26.7218
lfoot -11.2958 14.6324
ltoes -9.91346
336
root 0.465712 17.8496 -26.3437 2.99979 10.9747 1.40828
lowerback 4.41087 -1.05622 -1.59729
upperback 0.621568 -1.42406 2.90079
thorax -1.72054 -0.693763 3.97004
lowerneck -13.2132 -2.33954 3.09375
upperneck 18.0387 -2.57557 -6.55506
head 7.59142 -1.64269 -2.93728
rclavicle -3.06128e-014 2.62396e-014
rhumerus -29.5148 -25.6304 -14.0595
rradius 38.1677
rwrist -10.5433
rhand -21.8829 -3.50026
rfingers 7.12502
rthumb 4.52186 -33.432
lclavicle -3.06128e-014 2.62396e-014
lhumerus -21.5902 20.2182 29.5075
lradius 34.9043
lwrist 7.89708
lhand -16.4472 5.04196
lfingers 7.12502
lthumb 9.76872 34.7954
rfemur -3.10604 -4.53511 12.108
rtibia 26.8932
rfoot -13.9465 -32.0576
rtoes -1.49605
lfemur -7.81741 -3.20444 -16.4207
ltibia 26.7952
lfoot -11.4026 14.6183
ltoes -9.895
337
root 0.488803 17.8463 -26.327 3.03472 11.0062 1.43289
lowerback 4.41154 -1.04561 -1.57798
upperback 0.61794 -1.40851 2.91972
thorax -1.72589 -0.685907 3.978
lowerneck -13.2472 -2.36101 3.1008
upperneck 18.0671 -2.60496 -6.56159
head 7.60499 -1.65733 -2.94495
rclavicle 5.06901e-015 7.95139e-016
rhumerus -29.4676 -25.6916 -13.9154
rradius 38.1698
rwrist -10.5826
rhand -21.8322 -3.51541
rfingers 7.12502
rthumb 4.57085 -33.4461
lclavicle 5.06901e-015 7.95139e-016
lhumerus -21.6491 20.2459 29.3587
lradius 34.9231
lwrist 7.91909
lhand -16.374 5.10035
lfingers 7.12502
lthumb 9.83935 34.8505
rfemur -3.107 -4.55114 12.0152
rtibia 26.9841
rfoot -13.9956 -32.0888
rtoes -1.50717
lfemur -7.81279 -3.19734 -16.5155
ltibia 26.8604
lfoot -11.5058 14.6098
ltoes -9.882
